# xmcd
#
# Track frame offsets: 
#        150
#        14897
#        45185
#        69655
#        103632
#
# Disc length: 1657 seconds
#
# Revision: 0
# Processed by: cddbd v1.5.2PL0 Copyright (c) Steve Scherf et al.
# Submitted via: ExactAudioCopy v1.0b1
#
DISCID=3c067705
DTITLE=Bit Machine - Any Kind Of Vision CDM
DYEAR=1995
DGENRE=Eurodance
TTITLE0=Any Kind Of Vision (High Fashion Edit)
TTITLE1=Any Kind Of Vision (Taboo Remix)
TTITLE2=Any Kind Of Vision (Benny Smash Mix)
TTITLE3=Any Kind Of Vision (Kamasutra Mix)
TTITLE4=Any Kind Of Vision (Original Version)
EXTD=
EXTT0=
EXTT1=
EXTT2=
EXTT3=
EXTT4=
PLAYORDER=
